<svg xmlns="http://www.w3.org/2000/svg" xmlns:xlink="http://www.w3.org/1999/xlink" width="215" height="65" viewBox="0 0 215 65">
  <defs>
    <clipPath id="clip-microsoft-logo">
      <rect width="215" height="65"/>
    </clipPath>
  </defs>
  <g id="microsoft-logo" clip-path="url(#clip-microsoft-logo)">
    <g id="Microsoft" transform="translate(13 12)">
      <g id="Group_160501" data-name="Group 160501" transform="translate(0 0)">
        <path id="Path_7224" data-name="Path 7224" d="M95.665,46.174h19.287v19.28H95.665V46.174Z" transform="translate(-95.665 -46.174)" fill="#f25022"/>
        <path id="Path_7225" data-name="Path 7225" d="M98.767,46.174h19.287v19.28H98.767V46.174Z" transform="translate(-77.513 -46.174)" fill="#80ba01"/>
        <path id="Path_7226" data-name="Path 7226" d="M125.768,48.131a7.564,7.564,0,0,1,6.084-.713c.014,1.192,0,2.384.007,3.577a3.958,3.958,0,0,0-3.076-.281,2.435,2.435,0,0,0-1.391,1.946,24.878,24.878,0,0,0-.075,3.117c2.035.007,4.063,0,6.1.007.014-1.322-.014-2.645.021-3.967,1.384-.391,2.747-.836,4.125-1.247.014,1.74-.014,3.481.014,5.221,1.377-.021,2.754-.007,4.132-.007v3.385c-1.384-.055-2.768-.014-4.145-.021.007,1.946,0,3.892,0,5.844.021,1.076-.055,2.158.069,3.234a2.092,2.092,0,0,0,.9,1.665,3.1,3.1,0,0,0,3.172-.3v3.426a8.252,8.252,0,0,1-3.816.582,4.646,4.646,0,0,1-3.289-1.507,6.273,6.273,0,0,1-1.178-3.981c-.007-2.987,0-5.975,0-8.969q-3.052,0-6.1.007-.01,7.03,0,14.066h-4.173q0-7.03,0-14.066c-.966-.021-1.932.007-2.9-.014,0-1.11.007-2.227-.007-3.344.966-.021,1.925-.014,2.891-.007a17.491,17.491,0,0,1,.288-4.44,5.711,5.711,0,0,1,2.35-3.213Z" transform="translate(48.131 -40.786)" fill="#777"/>
        <path id="Path_7227" data-name="Path 7227" d="M109.817,47.308a2.54,2.54,0,0,1,2.309.815,2.374,2.374,0,0,1,.295,2.706,2.6,2.6,0,0,1-2.782,1.165,2.352,2.352,0,0,1-1.932-2.323,2.406,2.406,0,0,1,2.11-2.364Z" transform="translate(-25.214 -39.717)" fill="#777"/>
        <path id="Path_7228" data-name="Path 7228" d="M103.348,47.36h6.07c1.884,4.8,3.789,9.585,5.68,14.375.48,1.2.932,2.412,1.439,3.6,2.425-5.988,4.892-11.97,7.3-17.965,1.939-.034,3.885-.007,5.831-.014V71.683c-1.4-.007-2.8.007-4.207-.007.014-5.988,0-11.97.007-17.951,0-.267-.007-.534-.027-.808-.082.13-.151.26-.219.391-2.4,6.125-4.865,12.23-7.263,18.362-.993.034-1.994,0-2.994.014q-3.731-9.178-7.42-18.39-.092-.185-.206-.37c-.055,2.624-.007,5.248-.021,7.866,0,3.631-.007,7.263,0,10.894h-3.974V47.36Z" transform="translate(-50.707 -39.255)" fill="#777"/>
        <path id="Path_7229" data-name="Path 7229" d="M115.061,48.716a11.457,11.457,0,0,1,6.194.021,4.987,4.987,0,0,1,1.185.493c-.021,1.329,0,2.658-.007,3.988a6.62,6.62,0,0,0-4.762-1.459,4.917,4.917,0,0,0-3.467,1.925,6.733,6.733,0,0,0-1.1,4.824,4.925,4.925,0,0,0,5.584,4.632,8,8,0,0,0,3.748-1.535c.007,1.254-.007,2.515.007,3.775a10.148,10.148,0,0,1-5.7,1.178,8.43,8.43,0,0,1-5.433-2.268,8.669,8.669,0,0,1-2.521-5.831,10.56,10.56,0,0,1,1.644-6.475,8.445,8.445,0,0,1,4.632-3.268Z" transform="translate(-18.975 -33.738)" fill="#777"/>
        <path id="Path_7230" data-name="Path 7230" d="M120.537,48.453a11.012,11.012,0,0,1,5.776.6v3.837a7.356,7.356,0,0,0-4.385-1.295,2.232,2.232,0,0,0-1.987,1.1,1.79,1.79,0,0,0,.6,2.131c1.178.795,2.59,1.131,3.816,1.836a5.481,5.481,0,0,1,2.391,2.275,5.088,5.088,0,0,1-1.083,5.865,7.98,7.98,0,0,1-5.81,1.768,12.508,12.508,0,0,1-4.234-.973c0-1.35-.014-2.693.007-4.036a9.021,9.021,0,0,0,3.782,1.631,4.862,4.862,0,0,0,2.878-.26,1.672,1.672,0,0,0,.5-2.371,5.07,5.07,0,0,0-1.822-1.192,17.7,17.7,0,0,1-3.6-1.843,4.336,4.336,0,0,1-1.555-2.364A5.317,5.317,0,0,1,116.385,51a6.212,6.212,0,0,1,4.152-2.549Z" transform="translate(21.105 -33.736)" fill="#777"/>
        <path id="Path_7231" data-name="Path 7231" d="M117.482,48.911a4.694,4.694,0,0,1,3.871-.329c-.007,1.391,0,2.782-.007,4.173a4.437,4.437,0,0,0-2.816-.665,3.476,3.476,0,0,0-2.61,2.09,7.694,7.694,0,0,0-.6,3.556v8.338h-4.111q0-8.715,0-17.424c1.37-.021,2.741-.014,4.118-.007-.007,1,0,2-.007,2.994a5.321,5.321,0,0,1,2.158-2.727Z" transform="translate(-4.685 -33.646)" fill="#777"/>
        <path id="Path_7232" data-name="Path 7232" d="M107.76,48.367c1.384,0,2.768-.014,4.152.007-.021,5.81,0,11.613-.007,17.424H107.76V48.367Z" transform="translate(-24.89 -33.369)" fill="#777"/>
        <path id="Path_7233" data-name="Path 7233" d="M129.784,52.809a7.374,7.374,0,0,0-3.645-3.686,11.1,11.1,0,0,0-5.968-.706,8.333,8.333,0,0,0-5.481,2.932,9.268,9.268,0,0,0-1.925,5.331,9.972,9.972,0,0,0,1.528,6.509,7.869,7.869,0,0,0,4.817,3.138,11.823,11.823,0,0,0,4.878.007,8.061,8.061,0,0,0,4.789-2.953,9.256,9.256,0,0,0,1.836-5.077A11.412,11.412,0,0,0,129.784,52.809Zm-4.029,8a3.8,3.8,0,0,1-2.049,2.014,5.592,5.592,0,0,1-3.4.151,4.159,4.159,0,0,1-2.617-2.158,8.006,8.006,0,0,1-.63-4.364,5.5,5.5,0,0,1,1.61-3.631,4.349,4.349,0,0,1,2.741-1.083,4.5,4.5,0,0,1,3.494,1.178,5.661,5.661,0,0,1,1.439,3.638A9.182,9.182,0,0,1,125.756,60.8Z" transform="translate(4.171 -33.741)" fill="#777"/>
        <path id="Path_7234" data-name="Path 7234" d="M134.833,53.307a7.464,7.464,0,0,0-3.583-4.056,10.773,10.773,0,0,0-6.187-.836,8.147,8.147,0,0,0-7.365,7.331,11.6,11.6,0,0,0,.658,6.05,7.733,7.733,0,0,0,4.234,4.111,11.22,11.22,0,0,0,5.879.5,8.14,8.14,0,0,0,5.125-3,9.555,9.555,0,0,0,1.891-5.933A11.176,11.176,0,0,0,134.833,53.307Zm-3.761,5.913A5.446,5.446,0,0,1,130,61.776a3.9,3.9,0,0,1-2.439,1.309,5.494,5.494,0,0,1-2.987-.322,4.211,4.211,0,0,1-2.2-2.3,8.307,8.307,0,0,1-.493-3.8,6.017,6.017,0,0,1,1.268-3.474,4.262,4.262,0,0,1,3.042-1.459,4.591,4.591,0,0,1,3.344.987,4.824,4.824,0,0,1,1.507,2.775A10.645,10.645,0,0,1,131.071,59.22Z" transform="translate(32.523 -33.739)" fill="#777"/>
        <path id="Path_7235" data-name="Path 7235" d="M95.665,49.275q9.64.01,19.287.007v19.28H95.665V49.275Z" transform="translate(-95.665 -28.028)" fill="#02a4ef"/>
        <path id="Path_7236" data-name="Path 7236" d="M98.767,49.279q9.64-.01,19.287,0v19.28H98.767V49.279Z" transform="translate(-77.513 -28.025)" fill="#ffb902"/>
      </g>
    </g>
  </g>
</svg>
