<svg xmlns="http://www.w3.org/2000/svg" xmlns:xlink="http://www.w3.org/1999/xlink" width="215" height="65" viewBox="0 0 215 65">
  <defs>
    <clipPath id="clip-cyberark-logo">
      <rect width="215" height="65"/>
    </clipPath>
  </defs>
  <g id="cyberark-logo" clip-path="url(#clip-cyberark-logo)">
    <g id="CyberArk_Horiz" data-name="CyberArk Horiz" transform="translate(10 13)">
      <g id="Group_160517" data-name="Group 160517">
        <path id="Path_7304" data-name="Path 7304" d="M1577.278-1529.845l8.17-4.731v-9.991l-16.842,9.734Z" transform="translate(-1568.606 1544.568)" fill="#5f78ac"/>
        <path id="Path_7305" data-name="Path 7305" d="M1710.349-1373.847l8.182-4.724h0l8.652-5v10l-16.821,9.717Z" transform="translate(-1693.49 1402.721)" fill="#194f90"/>
        <path id="Path_7306" data-name="Path 7306" d="M1710.209-1534.577l8.181,4.723,8.648-5-16.829-9.716Z" transform="translate(-1693.367 1544.568)" fill="#194f90"/>
        <path id="Path_7307" data-name="Path 7307" d="M1585.662-1336.732l-8.188-4.712-8.646,5.007,16.847,9.7Z" transform="translate(-1568.802 1365.604)" fill="#5f78ac"/>
        <path id="Path_7308" data-name="Path 7308" d="M1577.278-1448.3v-9.437l-8.672-4.988.026,19.432Z" transform="translate(-1568.606 1472.46)" fill="#194f90"/>
        <path id="Path_7309" data-name="Path 7309" d="M1710.209-1460.58l8.182,4.724v9.447l-8.182-4.723Z" transform="translate(-1693.367 1470.569)" fill="#989a9d"/>
        <path id="Path_7310" data-name="Path 7310" d="M1649.686-1460.58l-8.17,4.733v9.437l8.17-4.722v-9.446" transform="translate(-1632.844 1470.569)" fill="#5c5d60"/>
      </g>
      <path id="Path_7311" data-name="Path 7311" d="M1935-1443.165a8.934,8.934,0,0,1-6.4,2.532c-6.185,0-8.961-4.261-8.985-8.741s2.9-8.936,8.985-8.936a8.712,8.712,0,0,1,6.233,2.581l-1.826,1.753a6.262,6.262,0,0,0-4.407-1.753,5.976,5.976,0,0,0-6.283,6.331c.024,3.116,1.875,6.208,6.283,6.208a6.61,6.61,0,0,0,4.53-1.85Z" transform="translate(-1877.861 1468.57)" fill="#231f20"/>
      <path id="Path_7312" data-name="Path 7312" d="M2074.333-1448.328l4.846-7.524h3.287v.122l-6.77,9.935v6.988h-2.728v-6.988l-6.574-9.935v-.122h3.239Z" transform="translate(-2007.188 1466.404)" fill="#231f20"/>
      <path id="Path_7313" data-name="Path 7313" d="M2239.623-1455.852c3.239,0,5.8,1.485,5.8,4.87a3.543,3.543,0,0,1-2.362,3.385,4.214,4.214,0,0,1,2.9,3.92c0,3.726-2.97,4.87-6.33,4.87h-7.816v-17.045Zm-5.113,7.061h5.137c2.046,0,3.069-.8,3.069-2.143,0-1.193-1.048-2.459-3.093-2.459h-5.113Zm0,7.451h5.113c1.509,0,3.6-.488,3.6-2.362,0-1.826-2.022-2.654-3.58-2.654h-5.137Z" transform="translate(-2152.927 1466.404)" fill="#231f20"/>
      <path id="Path_7314" data-name="Path 7314" d="M2401.208-1438.808H2388.62v-17.045h12.516v2.654h-9.788v4.6h9.4v2.532h-9.4v4.578h9.86Z" transform="translate(-2291.089 1466.404)" fill="#231f20"/>
      <path id="Path_7315" data-name="Path 7315" d="M2548.883-1438.991h-3.19l-5.186-5.893h-3.6v5.893h-2.727v-17.07c2.654,0,5.283.025,7.938.025,3.943,0,6.013,2.7,6.013,5.576a5.03,5.03,0,0,1-4.626,5.308l5.088,5.673Zm-11.98-14.561v6.185h5.186a2.936,2.936,0,0,0,3.263-3.043,3.035,3.035,0,0,0-3.238-3.141Z" transform="translate(-2419.332 1466.588)" fill="#231f20"/>
      <path id="Path_7316" data-name="Path 7316" d="M2684.786-1441.608h-7.621l-1.121,2.8h-5.113l7.646-17.045h4.871l7.621,17.045h-5.163Zm-3.8-9.472-2.192,5.43h4.358Z" transform="translate(-2539.822 1466.404)" fill="#194f90"/>
      <path id="Path_7317" data-name="Path 7317" d="M2877.714-1438.808h-5.308l-3.968-5.527h-1.68v5.527h-4.823v-17.045h8.327c4.359,0,6.624,2.8,6.624,5.868,0,2.094-.731,3.871-3.6,5.138l4.432,5.746Zm-10.956-13.2v4.091h3.553a1.786,1.786,0,0,0,1.826-1.973,1.919,1.919,0,0,0-1.875-2.118Z" transform="translate(-2708.109 1466.404)" fill="#194f90"/>
      <path id="Path_7318" data-name="Path 7318" d="M3038.115-1455.56l-6.915,8.06c2.386,2.629,5.137,5.7,7.5,8.4v.292h-5.965l-4.869-5.674v5.674h-4.823v-17.045h4.823v5.6c1.461-1.8,3.043-3.8,4.481-5.6h5.77Z" transform="translate(-2850.052 1466.404)" fill="#194f90"/>
      <g id="Group_160518" data-name="Group 160518" transform="translate(190.185 7.305)">
        <path id="Path_7319" data-name="Path 7319" d="M3169.61-1479.17a1.974,1.974,0,0,1-1.991-1.991,1.974,1.974,0,0,1,1.991-1.991,1.978,1.978,0,0,1,1.992,1.991A1.978,1.978,0,0,1,3169.61-1479.17Zm0-3.7a1.652,1.652,0,0,0-1.639,1.7,1.652,1.652,0,0,0,1.639,1.7,1.652,1.652,0,0,0,1.64-1.7A1.652,1.652,0,0,0,3169.61-1482.865Zm.726,2.8h-.2a.093.093,0,0,1-.088-.041c-.052-.094-.094-.169-.159-.281a3.553,3.553,0,0,0-.385-.556.166.166,0,0,0-.13-.065h-.069v.826a.11.11,0,0,1-.106.111h-.134a.115.115,0,0,1-.111-.111v-2a.11.11,0,0,1,.111-.105h.563c.5,0,.738.287.738.615a.564.564,0,0,1-.574.609,3.106,3.106,0,0,1,.621.873A.079.079,0,0,1,3170.336-1480.06Zm-.813-1.938h-.216v.708h.211c.379,0,.486-.111.486-.369S3169.826-1482,3169.522-1482Z" transform="translate(-3167.619 1483.152)" fill="#231f20"/>
      </g>
    </g>
  </g>
</svg>
