<svg xmlns="http://www.w3.org/2000/svg" xmlns:xlink="http://www.w3.org/1999/xlink" width="215" height="65" viewBox="0 0 215 65">
  <defs>
    <clipPath id="clip-varonis-logo">
      <rect width="215" height="65"/>
    </clipPath>
  </defs>
  <g id="varonis-logo" clip-path="url(#clip-varonis-logo)">
    <g id="Varonis" transform="translate(8 16)">
      <g id="Group_160519" data-name="Group 160519" transform="translate(0)">
        <path id="Path_7320" data-name="Path 7320" d="M3556.661-3873.521h-1.887c-5.885,0-9.687,3.766-9.687,9.588s3.8,9.589,9.688,9.589h1.887c5.886,0,9.69-3.764,9.69-9.589S3562.547-3873.521,3556.661-3873.521Zm5.667,9.588c0,3.63-2.2,5.795-5.893,5.795H3555c-3.677,0-5.867-2.165-5.867-5.795s2.19-5.793,5.867-5.793h1.435C3560.125-3869.725,3562.329-3867.558,3562.329-3863.932Z" transform="translate(-3424.684 3887.602)" fill="#d21a27"/>
        <path id="Path_7321" data-name="Path 7321" d="M3623.627-3873.521a1.864,1.864,0,0,0-2.021,2v15.184a1.863,1.863,0,0,0,2.021,2,1.872,1.872,0,0,0,2-2v-15.184A1.873,1.873,0,0,0,3623.627-3873.521Z" transform="translate(-3450.326 3887.602)" fill="#d21a27"/>
        <path id="Path_7322" data-name="Path 7322" d="M3460.041-3870.336a1.875,1.875,0,0,0-.526-2.777,1.865,1.865,0,0,0-2.8.51l-8.615,12.625-8.622-12.629a1.871,1.871,0,0,0-2.776-.524,1.865,1.865,0,0,0-.545,2.789s10.251,15.074,10.409,15.239a1.812,1.812,0,0,0,1.528.745,1.84,1.84,0,0,0,1.548-.765C3449.785-3855.269,3460.041-3870.336,3460.041-3870.336Z" transform="translate(-3388.046 3887.605)" fill="#d21a27"/>
        <path id="Path_7323" data-name="Path 7323" d="M3648.686-3865.827H3641.6a1.777,1.777,0,0,1-1.973-1.951,1.758,1.758,0,0,1,1.973-1.948h10.384a1.8,1.8,0,0,0,1.9-1.9,1.8,1.8,0,0,0-1.9-1.9h-10.606a5.4,5.4,0,0,0-5.792,5.743,5.405,5.405,0,0,0,5.792,5.744h7.089a1.775,1.775,0,0,1,1.97,1.948,1.756,1.756,0,0,1-1.97,1.948H3637.5a1.807,1.807,0,0,0-1.919,1.9,1.789,1.789,0,0,0,1.919,1.9h11.183a5.405,5.405,0,0,0,5.792-5.743A5.4,5.4,0,0,0,3648.686-3865.827Z" transform="translate(-3455.01 3887.602)" fill="#d21a27"/>
        <path id="Path_7324" data-name="Path 7324" d="M3510.063-3871.523v15.184a1.865,1.865,0,0,0,2.024,2,1.872,1.872,0,0,0,2-2v-4.581h7.814l3.938,5.769a1.692,1.692,0,0,0,1.4.809,1.584,1.584,0,0,0,.195-.014,1.765,1.765,0,0,0,1.549-2.085,1.62,1.62,0,0,0-.336-.817l-2.843-4.154c1.983-.849,3.168-2.841,3.168-5.464,0-.09-.007-.18-.012-.267a.551.551,0,0,0-.007-.072c0-.04,0-.08.007-.118.005-.09.012-.175.012-.265,0-3.6-2.167-5.921-5.517-5.921h-11.367A1.865,1.865,0,0,0,3510.063-3871.523Zm4.023,1.8h8.819a2.212,2.212,0,0,1,2.249,2.483,2.234,2.234,0,0,1-1.919,2.462h-9.149Z" transform="translate(-3412.947 3887.602)" fill="#d21a27"/>
        <path id="Path_7325" data-name="Path 7325" d="M3491.969-3857.543s-10.25-15.074-10.408-15.24a1.832,1.832,0,0,0-1.528-.747,1.858,1.858,0,0,0-1.549.768c-.139.147-10.394,15.214-10.394,15.214a1.873,1.873,0,0,0,.526,2.777,1.866,1.866,0,0,0,2.8-.51l2.114-3.1h13l2.117,3.1a1.873,1.873,0,0,0,2.778.522A1.864,1.864,0,0,0,3491.969-3857.543Zm-16.133-4.217,4.193-6.145,4.194,6.145Z" transform="translate(-3398.748 3887.606)" fill="#d21a27"/>
        <path id="Path_7326" data-name="Path 7326" d="M3601.573-3854.343a1.825,1.825,0,0,1-1.987-1.986v-7.78c0-4.168-2.95-5.655-5.715-5.655h-1.45c-2.762,0-5.715,1.487-5.715,5.655v7.78a1.826,1.826,0,0,1-1.988,1.986,1.856,1.856,0,0,1-2.016-1.986v-7.78c0-5.715,3.731-9.412,9.5-9.412h1.883c5.772,0,9.5,3.7,9.5,9.412v7.78A1.856,1.856,0,0,1,3601.573-3854.343Z" transform="translate(-3437.288 3887.602)" fill="#d21a27"/>
        <path id="Path_7327" data-name="Path 7327" d="M3392.7-3894.7h-7.4l13.277,19.48,3.7-5.421Z" transform="translate(-3371.137 3894.699)" fill="#d21a27"/>
        <path id="Path_7328" data-name="Path 7328" d="M3418.742-3859.22l-9.772-14.336-3.7,5.421,8.422,12.358a2.834,2.834,0,0,0,4.251.776A2.844,2.844,0,0,0,3418.742-3859.22Z" transform="translate(-3377.829 3887.614)" fill="#4a90e2"/>
        <path id="Path_7329" data-name="Path 7329" d="M3395.958-3850.546a2.833,2.833,0,0,0,4.25.776,2.847,2.847,0,0,0,.8-4.221l-2.7-3.961-3.7,5.42Z" transform="translate(-3374.256 3882.385)" fill="#4a90e2"/>
        <path id="Path_7330" data-name="Path 7330" d="M3364-3894.7l20.349,29.854,3.7-5.42L3371.4-3894.7Z" transform="translate(-3364 3894.699)" fill="#d21a27"/>
      </g>
    </g>
  </g>
</svg>
