<svg xmlns="http://www.w3.org/2000/svg" xmlns:xlink="http://www.w3.org/1999/xlink" width="215" height="65" viewBox="0 0 215 65">
  <defs>
    <clipPath id="clip-proofpoint-logo">
      <rect width="215" height="65"/>
    </clipPath>
  </defs>
  <g id="proofpoint-logo" clip-path="url(#clip-proofpoint-logo)">
    <g id="proofpoint" transform="translate(21 16)">
      <path id="Path_7237" data-name="Path 7237" d="M179.988,67.862v-3.68h-1.273c-1.38,0-1.707-.205-1.707-1.171V52.9h2.98V49.467h-2.98V44.481h-5.126v4.986h-2.547V52.9h2.547v9.869c0,3.815.909,5.191,5.163,5.191.546,0,1.525-.07,2.943-.1" transform="translate(-14.116 -42.83)" fill="#231f20"/>
      <path id="Path_7238" data-name="Path 7238" d="M165.318,64.182h5.163V53.353a3.63,3.63,0,0,1,3.964-3.848c2.215,0,2.98,1.166,2.98,3.643V64.182h5.163V51.739c0-4.193-2.108-6.292-6.362-6.292a7.245,7.245,0,0,0-5.853,2.645V45.927h-5.056Z" transform="translate(-28.834 -39.29)" fill="#231f20"/>
      <rect id="Rectangle_974" data-name="Rectangle 974" width="5.162" height="4.435" transform="translate(128.159 0.174)" fill="#231f20"/>
      <rect id="Rectangle_975" data-name="Rectangle 975" width="5.162" height="18.256" transform="translate(128.159 6.637)" fill="#231f20"/>
      <path id="Path_7239" data-name="Path 7239" d="M164.149,55.177c0-3.647,1.67-5.639,4.543-5.639s4.505,1.992,4.505,5.639-1.632,5.671-4.505,5.671-4.543-2.029-4.543-5.671m-5.238,0c0,6.082,3.708,9.762,9.78,9.762s9.78-3.68,9.78-9.762-3.713-9.766-9.78-9.766-9.78,3.68-9.78,9.766" transform="translate(-52.31 -39.426)" fill="#231f20"/>
      <path id="Path_7240" data-name="Path 7240" d="M168.076,55.286c0,3.4-1.637,5.4-4.179,5.4-2.728,0-4.328-1.922-4.328-5.4,0-3.745,1.492-5.671,4.216-5.671,2.766,0,4.291,1.959,4.291,5.671M154.555,71.62h5.014V62.026a6.541,6.541,0,0,0,5.709,2.887c4.51,0,7.924-3.815,7.924-9.832,0-5.844-3.307-9.664-7.994-9.664a6.463,6.463,0,0,0-5.746,3.1V46.037h-4.907Z" transform="translate(-68.27 -39.4)" fill="#231f20"/>
      <path id="Path_7241" data-name="Path 7241" d="M154.477,69.019h5.051V54.2h3.2V50.764H159.5V49.491c0-1.166.471-1.376,1.889-1.376h1.343V44.23c-.9-.065-1.707-.1-2.472-.1-3.96,0-5.779,1.516-5.779,4.953v1.684h-2.761V54.2h2.761Z" transform="translate(-78.673 -44.127)" fill="#231f20"/>
      <path id="Path_7242" data-name="Path 7242" d="M152.69,55.177c0-3.647,1.67-5.639,4.543-5.639s4.51,1.992,4.51,5.639-1.637,5.671-4.51,5.671-4.543-2.029-4.543-5.671m-5.238,0c0,6.082,3.708,9.762,9.78,9.762s9.781-3.68,9.781-9.762-3.708-9.766-9.781-9.766-9.78,3.68-9.78,9.766" transform="translate(-94.296 -39.426)" fill="#231f20"/>
      <path id="Path_7243" data-name="Path 7243" d="M148.24,55.177c0-3.647,1.674-5.639,4.543-5.639s4.51,1.992,4.51,5.639-1.637,5.671-4.51,5.671-4.543-2.029-4.543-5.671m-5.233,0c0,6.082,3.708,9.762,9.776,9.762s9.78-3.68,9.78-9.762-3.708-9.766-9.78-9.766-9.776,3.68-9.776,9.766" transform="translate(-110.583 -39.426)" fill="#231f20"/>
      <path id="Path_7244" data-name="Path 7244" d="M140.5,64.208h5.163V54.549c0-2.752,1.455-4.128,4.254-4.128h1.707V45.473a5.925,5.925,0,0,0-.76-.033c-2.472,0-4.221,1.133-5.564,3.643v-3.13h-4.8Z" transform="translate(-119.779 -39.316)" fill="#231f20"/>
      <path id="Path_7245" data-name="Path 7245" d="M149.576,55.286c0,3.4-1.637,5.4-4.179,5.4-2.728,0-4.328-1.922-4.328-5.4,0-3.745,1.492-5.671,4.216-5.671,2.766,0,4.291,1.959,4.291,5.671M136.055,71.62h5.014V62.026a6.541,6.541,0,0,0,5.709,2.887c4.505,0,7.924-3.815,7.924-9.832,0-5.844-3.307-9.664-8-9.664a6.45,6.45,0,0,0-5.741,3.1V46.037h-4.907Z" transform="translate(-136.055 -39.4)" fill="#231f20"/>
      <g id="Group_160502" data-name="Group 160502" transform="translate(168.418 21.427)">
        <path id="Path_7246" data-name="Path 7246" d="M176.195,50.68a2.016,2.016,0,1,1-2.01-1.959A1.97,1.97,0,0,1,176.195,50.68Zm-3.526,0a1.519,1.519,0,0,0,1.53,1.567,1.5,1.5,0,0,0,1.493-1.553,1.512,1.512,0,1,0-3.022-.014Zm1.2,1.031h-.452V49.747a4.224,4.224,0,0,1,.756-.061,1.223,1.223,0,0,1,.681.145.542.542,0,0,1,.191.429.5.5,0,0,1-.406.457v.023a.566.566,0,0,1,.354.48,1.577,1.577,0,0,0,.145.49h-.49a1.728,1.728,0,0,1-.154-.48c-.037-.215-.159-.312-.406-.312h-.219Zm.014-1.115h.215c.252,0,.457-.084.457-.285,0-.182-.135-.3-.42-.3a.982.982,0,0,0-.252.023Z" transform="translate(-172.165 -48.721)" fill="#231f20"/>
      </g>
    </g>
  </g>
</svg>
