<svg xmlns="http://www.w3.org/2000/svg" xmlns:xlink="http://www.w3.org/1999/xlink" width="215" height="65" viewBox="0 0 215 65">
  <defs>
    <clipPath id="clip-netskope-logo">
      <rect width="215" height="65"/>
    </clipPath>
  </defs>
  <g id="netskope-logo" clip-path="url(#clip-netskope-logo)">
    <g id="Netskope" transform="translate(29 1)">
      <g id="Group_160505" data-name="Group 160505" transform="translate(0 0)">
        <g id="Group_160504" data-name="Group 160504" transform="translate(100.951)">
          <path id="Path_7259" data-name="Path 7259" d="M324.169,97.176a6.88,6.88,0,0,1-1.484,2.2A7.563,7.563,0,0,1,317.5,101.5l7.128,7.129a7.567,7.567,0,0,1,2.129-5.189,6.887,6.887,0,0,1,2.2-1.484A8.079,8.079,0,0,1,324.169,97.176Z" transform="translate(-310.787 -87.473)" fill="#ff6a00"/>
          <path id="Path_7260" data-name="Path 7260" d="M318.665,115.848a6.921,6.921,0,1,0-9.787,0,6.921,6.921,0,0,0,9.787,0" transform="translate(-306.851 -90.008)" fill="#ff6a00"/>
          <path id="Path_7261" data-name="Path 7261" d="M340.917,83.809a6.921,6.921,0,1,1-9.787,0,6.92,6.92,0,0,1,9.787,0" transform="translate(-315.077 -81.782)" fill="#424448"/>
          <path id="Path_7262" data-name="Path 7262" d="M382.882,83.809a6.919,6.919,0,0,0-11.809,4.684l0,0a7.566,7.566,0,0,1-2.129,5.189,6.881,6.881,0,0,1-2.2,1.485,8.078,8.078,0,0,1,4.784,4.784,6.887,6.887,0,0,1,1.485-2.2,7.565,7.565,0,0,1,5.189-2.13l0,0a6.919,6.919,0,0,0,4.684-11.809Zm-2.391,7.4a3.538,3.538,0,1,1,1.036-2.5A3.515,3.515,0,0,1,380.49,91.2Z" transform="translate(-328.992 -81.782)" fill="#0098c5"/>
          <path id="Path_7263" data-name="Path 7263" d="M363.168,106.06a6.921,6.921,0,1,1-9.787,0,6.92,6.92,0,0,1,9.787,0" transform="translate(-323.304 -90.008)" fill="#424448"/>
          <path id="Path_7264" data-name="Path 7264" d="M349.006,97.616a7.563,7.563,0,0,1-2.129-5.189l-7.129,7.129a7.272,7.272,0,0,1,7.319,7.319l7.129-7.129a7.563,7.563,0,0,1-5.189-2.129" transform="translate(-319.013 -85.717)" fill="#424448"/>
        </g>
        <path id="Path_7265" data-name="Path 7265" d="M215.661,157.7c-3.519,0-5.705-2.145-5.705-5.6V131.059a1.447,1.447,0,0,1,1.444-1.48,1.464,1.464,0,0,1,1.48,1.48v7.147h5.145a1.446,1.446,0,0,1,1.408,1.409,1.409,1.409,0,0,1-1.408,1.372H212.88v10.938c0,2.02.974,2.96,3.068,2.96a4.743,4.743,0,0,0,1.566-.249,1.686,1.686,0,0,1,.511-.108A1.408,1.408,0,0,1,219.4,155.9a1.372,1.372,0,0,1-.94,1.295A8.152,8.152,0,0,1,215.661,157.7Z" transform="translate(-167.111 -101.158)" fill="#424448"/>
        <path id="Path_7266" data-name="Path 7266" d="M238.916,162.38a13.21,13.21,0,0,1-7.44-2.48,1.514,1.514,0,0,1-.556-1.148,1.463,1.463,0,0,1,1.443-1.443,1.558,1.558,0,0,1,.925.3,9.622,9.622,0,0,0,5.736,1.959c2.249,0,3.82-1.188,3.82-2.889V156.6c0-1.554-1.549-2.285-4.408-3.09l-.074-.021-.083-.024c-2.912-.841-6.536-1.888-6.536-5.53v-.072c0-3.264,2.776-5.633,6.6-5.633a12.934,12.934,0,0,1,6.2,1.724l.034.021a1.513,1.513,0,0,1,.725,1.274,1.463,1.463,0,0,1-1.444,1.444,1.524,1.524,0,0,1-.81-.231,9.515,9.515,0,0,0-4.776-1.416c-2.1,0-3.569,1.07-3.569,2.6v.071c0,1.524,1.931,2.2,4.66,2.983,2.41.676,6.44,1.807,6.44,5.683v.072C245.8,159.89,242.906,162.38,238.916,162.38Z" transform="translate(-175.284 -105.836)" fill="#424448"/>
        <path id="Path_7267" data-name="Path 7267" d="M263.776,157.487a1.447,1.447,0,0,1-1.479-1.48V131.059a1.447,1.447,0,0,1,1.444-1.48,1.464,1.464,0,0,1,1.479,1.48v24.948A1.414,1.414,0,0,1,263.776,157.487Z" transform="translate(-187.283 -101.158)" fill="#424448"/>
        <path id="Path_7268" data-name="Path 7268" d="M302.582,162.409a9.9,9.9,0,0,1-9.93-10.073v-.072a9.967,9.967,0,1,1,19.932-.071v.071A9.967,9.967,0,0,1,302.582,162.409Zm0-17.474a6.914,6.914,0,0,0-6.863,7.257v.071a7.064,7.064,0,0,0,6.935,7.329,6.913,6.913,0,0,0,6.863-7.257v-.072A7.064,7.064,0,0,0,302.582,144.935Z" transform="translate(-199.317 -105.794)" fill="#424448"/>
        <path id="Path_7269" data-name="Path 7269" d="M182.475,162.409c-5.437,0-9.536-4.346-9.536-10.109v-.071c0-5.669,4.063-10.109,9.25-10.109s8.964,4.221,8.964,10.038a1.483,1.483,0,0,1-1.443,1.408h-9.981a1.336,1.336,0,0,1-1.4-1.365,1.367,1.367,0,0,1,1.4-1.4h8.293c-.388-2.852-2.113-5.9-5.9-5.9-3.1,0-5.583,2.483-6.086,5.983l-.062.586a6.333,6.333,0,0,0,.018,1.684l0,.036c.368,3.771,3.064,6.4,6.556,6.4a7.5,7.5,0,0,0,5.5-2.34,1.35,1.35,0,0,1,.981-.417,1.4,1.4,0,0,1,.986,2.43A9.823,9.823,0,0,1,182.475,162.409Z" transform="translate(-152.211 -105.794)" fill="#424448"/>
        <path id="Path_7270" data-name="Path 7270" d="M331.729,169.794a1.447,1.447,0,0,1-1.48-1.48V151.35c0-5.607,4.318-9.231,9.443-9.231a9.9,9.9,0,0,1,9.93,10.074v.071a9.967,9.967,0,0,1-10,10.145,8.925,8.925,0,0,1-6.448-2.584v8.488A1.414,1.414,0,0,1,331.729,169.794Zm1.444-16.675c.347,3.694,2.819,6.29,6.158,6.464.12.006.239.009.361.009A6.436,6.436,0,0,0,343,158.72c.093-.055.187-.113.277-.173a6.533,6.533,0,0,0,2.018-2.14q.086-.145.165-.294c.106-.2.2-.407.292-.618a8.148,8.148,0,0,0,.616-3.159v-.072a8.25,8.25,0,0,0-.4-2.553c-.072-.223-.157-.446-.249-.661s-.193-.421-.3-.624A6.77,6.77,0,0,0,342.9,145.8c-.1-.056-.193-.109-.291-.159a6.391,6.391,0,0,0-.609-.274,6.464,6.464,0,0,0-1.315-.354,6.768,6.768,0,0,0-.7-.074c-.119-.006-.24-.009-.361-.009-3.53,0-6.115,2.608-6.453,6.415h0Z" transform="translate(-214.55 -105.794)" fill="#424448"/>
        <path id="Path_7271" data-name="Path 7271" d="M281.1,162.288a1.457,1.457,0,0,1-1.045-.437l-9.072-9.187a1.465,1.465,0,0,1-.083-1.973l.052-.055,8.261-7.642a1.469,1.469,0,0,1,2.23,1.913l-.057.059-7.32,6.638,8.079,8.183a1.469,1.469,0,0,1-1.045,2.5Z" transform="translate(-190.607 -105.934)" fill="#424448"/>
        <path id="Path_7272" data-name="Path 7272" d="M155.052,162.451a1.457,1.457,0,0,1-1.49-1.489V150.748c0-3.58-1.975-5.717-5.283-5.717S143,147.169,143,150.748v10.213a1.457,1.457,0,0,1-1.49,1.489,1.424,1.424,0,0,1-1.453-1.489V150.423c0-4.975,3.129-8.19,7.973-8.19h.507c4.843,0,7.973,3.215,7.973,8.19v10.539A1.424,1.424,0,0,1,155.052,162.451Z" transform="translate(-140.053 -105.836)" fill="#424448"/>
        <path id="Path_7273" data-name="Path 7273" d="M376.359,162.409c-5.436,0-9.536-4.346-9.536-10.109v-.071c0-5.669,4.063-10.109,9.25-10.109s8.964,4.221,8.964,10.038a1.464,1.464,0,0,1-1.444,1.408h-9.98a1.336,1.336,0,0,1-1.4-1.365,1.367,1.367,0,0,1,1.4-1.4H381.9c-.388-2.852-2.114-5.9-5.9-5.9-3.1,0-5.587,2.487-6.087,5.991l-.061.578a6.344,6.344,0,0,0,.018,1.684l0,.036c.368,3.77,3.064,6.4,6.555,6.4a7.5,7.5,0,0,0,5.5-2.34,1.354,1.354,0,0,1,.981-.417,1.4,1.4,0,0,1,.986,2.43A9.821,9.821,0,0,1,376.359,162.409Z" transform="translate(-228.071 -105.794)" fill="#424448"/>
      </g>
    </g>
  </g>
</svg>
