<?xml version="1.0" encoding="utf-8"?>
<!-- Generator: Adobe Illustrator 25.1.0, SVG Export Plug-In . SVG Version: 6.00 Build 0)  -->
<svg version="1.1" id="Layer_1" xmlns="http://www.w3.org/2000/svg" xmlns:xlink="http://www.w3.org/1999/xlink" x="0px" y="0px"
	 viewBox="0 0 423.4 189.8" style="enable-background:new 0 0 423.4 189.8;" xml:space="preserve">
<style type="text/css">
	.st0{fill:#414042;}
	.st1{fill:#0057B8;}
	.st2{fill:#7BAFD4;}
</style>
<g>
	<g>
		<path class="st0" d="M111.2,53.4h33.9c19.8,0,31.8,11.7,31.8,28.7v0.2c0,19.2-14.9,29.2-33.5,29.2h-13.9v24.9h-18.2L111.2,53.4
			L111.2,53.4z M143.9,95.3c9.1,0,14.5-5.4,14.5-12.6v-0.2c0-8.2-5.7-12.6-14.8-12.6h-14.1v25.4L143.9,95.3L143.9,95.3z"/>
		<path class="st0" d="M221.6,70.3h-25.2V53.4h68.8v16.8h-25.3v66.1h-18.2V70.3z"/>
		<path class="st0" d="M294.1,53.4h18.2v83h-18.2V53.4z"/>
		<path class="st0" d="M340.2,53.4h20.1l21.7,58.4l21.7-58.4h19.7L389.9,137h-16.1L340.2,53.4z"/>
	</g>
	<path class="st0" d="M43,51.9c-23.7,0-43,19.3-43,43c0,23.7,19.3,43,43,43s43-19.3,43-43C86,71.2,66.7,51.9,43,51.9z M43,120.1
		c-13.9,0-25.2-11.3-25.2-25.1S29.1,69.8,43,69.8c13.9,0,25.2,11.3,25.2,25.2C68.2,108.8,56.9,120.1,43,120.1z"/>
	<path class="st1" d="M43,154.6c-21,0-38.6,15.2-42.3,35.2h18.4c3.3-10.1,12.8-17.4,23.9-17.4s20.6,7.3,23.9,17.4h18.4
		C81.6,169.8,64.1,154.6,43,154.6z"/>
	<path class="st2" d="M43,35.2C64.1,35.2,81.6,20,85.3,0H66.9C63.6,10.1,54.2,17.4,43,17.4S22.4,10.1,19.1,0H0.7
		C4.4,20,21.9,35.2,43,35.2z"/>
</g>
</svg>
