<svg xmlns="http://www.w3.org/2000/svg" xmlns:xlink="http://www.w3.org/1999/xlink" width="215" height="65" viewBox="0 0 215 65">
  <defs>
    <clipPath id="clip-okta-logo">
      <rect width="215" height="65"/>
    </clipPath>
  </defs>
  <g id="okta-logo" clip-path="url(#clip-okta-logo)">
    <g id="Okta" transform="translate(44 11)">
      <g id="Group_160507" data-name="Group 160507">
        <path id="Path_7274" data-name="Path 7274" d="M1416.619-4447.8a16.08,16.08,0,0,0-16.08,16.081,16.08,16.08,0,0,0,16.08,16.08,16.08,16.08,0,0,0,16.08-16.08A16.08,16.08,0,0,0,1416.619-4447.8Zm0,24.12a8.039,8.039,0,0,1-8.04-8.039,8.041,8.041,0,0,1,8.04-8.041,8.041,8.041,0,0,1,8.04,8.041A8.039,8.039,0,0,1,1416.619-4423.683Z" transform="translate(-1400.539 4458.603)" fill="#057dc1"/>
        <path id="Path_7275" data-name="Path 7275" d="M1566.569-4462.669a1.42,1.42,0,0,1,2.433-.994c4.011,4.1,10.671,11.118,10.712,11.156a1.051,1.051,0,0,0,.576.372,2.7,2.7,0,0,0,.689.067l7.253,0a1.408,1.408,0,0,0,1.086-2.268l-12.016-12.318-.625-.655c-1.367-1.632-1.221-2.266.341-3.92l9.549-10.606a1.394,1.394,0,0,0-1.116-2.247h-6.57a2.291,2.291,0,0,0-.625.051,1.337,1.337,0,0,0-.638.369c-.04.038-5.311,5.719-8.554,9.213a1.434,1.434,0,0,1-2.485-.976l0-18.234a1.273,1.273,0,0,0-1.38-1.278h-5.376a1.253,1.253,0,0,0-1.39,1.166v40.464c0,.932.779,1.187,1.394,1.187h5.373a1.292,1.292,0,0,0,1.375-1.22v-9.326Z" transform="translate(-1522.254 4494.939)" fill="#057dc1"/>
        <path id="Path_7276" data-name="Path 7276" d="M1720.179-4453.515l-.575-5.384a1.288,1.288,0,0,0-1.49-1.13,7.98,7.98,0,0,1-1.244.1,8.02,8.02,0,0,1-8.006-7.607c-.008-.144.01-.288.01-.433v-6.562a1.5,1.5,0,0,1,1.492-1.554l7.2.005a1.317,1.317,0,0,0,1.263-1.389v-5.1a1.365,1.365,0,0,0-1.2-1.518h-7.247a1.466,1.466,0,0,1-1.519-1.452l-.014-8.136a1.293,1.293,0,0,0-1.39-1.267H1702.1a1.22,1.22,0,0,0-1.317,1.237s0,26.033,0,26.177a16.085,16.085,0,0,0,16.085,15.641,16.015,16.015,0,0,0,2.145-.148A1.352,1.352,0,0,0,1720.179-4453.515Z" transform="translate(-1631.994 4494.939)" fill="#057dc1"/>
        <g id="Group_160506" data-name="Group 160506" transform="translate(89.493 10.802)">
          <path id="Path_7277" data-name="Path 7277" d="M1828.562-4423.917c-4.554,0-5.234-1.618-5.245-7.744,0-.02,0-.039,0-.059l-.01-14.657a1.365,1.365,0,0,0-1.392-1.362h-5.362a1.39,1.39,0,0,0-1.4,1.362l0,.683a16,16,0,0,0-7.926-2.1,16.076,16.076,0,0,0-16.08,16.076,16.078,16.078,0,0,0,16.08,16.078,16.015,16.015,0,0,0,10.443-3.858c1.515,2.3,3.943,3.831,7.736,3.858.648,0,4.084.116,4.084-1.489v-5.72A1.032,1.032,0,0,0,1828.562-4423.917Zm-21.326.239a8.04,8.04,0,0,1-8.04-8.04,8.04,8.04,0,0,1,8.04-8.04,8.039,8.039,0,0,1,8.04,8.04A8.04,8.04,0,0,1,1807.236-4423.678Z" transform="translate(-1791.15 4447.793)" fill="#057dc1"/>
        </g>
      </g>
    </g>
  </g>
</svg>
