<svg xmlns="http://www.w3.org/2000/svg" xmlns:xlink="http://www.w3.org/1999/xlink" width="215" height="65" viewBox="0 0 215 65">
  <defs>
    <clipPath id="clip-palo-alto-logo">
      <rect width="215" height="65"/>
    </clipPath>
  </defs>
  <g id="palo-alto-logo" clip-path="url(#clip-palo-alto-logo)">
    <g id="Palo_Alto_Networks_-_CMYK" data-name="Palo Alto Networks - CMYK" transform="translate(1 13)">
      <g id="Group_160500" data-name="Group 160500" transform="translate(0)">
        <path id="Path_7207" data-name="Path 7207" d="M67.4,44.56a19.021,19.021,0,0,0-9.169,2.652l1.97,4.87c3.079-1.722,5.627-2.473,7.488-2.473,2.115,0,3.045.792,3.045,1.826v.075c0,.716-.572,1.109-1.97,1.254l-2.438.248c-6.084.647-8.591,3.293-8.591,6.95v.248c0,3.472,2.866,6.194,6.91,6.194A7.621,7.621,0,0,0,71.027,63.3l.456,2.75H77V53.55c0-5.91-3.4-8.99-9.6-8.99m-.537,17.084c-2.039,0-3-.786-3-2v-.075c0-1.075.607-1.86,2.825-2.184l.971-.139a7.758,7.758,0,0,0,3.079-.942v1.583a3.516,3.516,0,0,1-3.871,3.761" transform="translate(23.314 -37.399)" fill="#231f20"/>
        <path id="Path_7208" data-name="Path 7208" d="M73.826,50.419l-7.055-7.055-7.055,7.055,3.51,3.51L45.534,71.62l7.055,7.055,7.055-7.055-3.51-3.51Z" transform="translate(-34.969 -43.113)" fill="#ef4e23"/>
        <rect id="Rectangle_970" data-name="Rectangle 970" width="25.02" height="9.977" transform="matrix(0.707, -0.707, 0.707, 0.707, 0, 17.942)" fill="#ef4e23"/>
        <rect id="Rectangle_971" data-name="Rectangle 971" width="25.02" height="9.977" transform="translate(24.675 28.507) rotate(-45.001)" fill="#ef4e23"/>
        <rect id="Rectangle_972" data-name="Rectangle 972" width="6.267" height="28.65" transform="translate(103.894)" fill="#231f20"/>
        <path id="Path_7209" data-name="Path 7209" d="M66.158,44.56a7.351,7.351,0,0,0-6.4,3.235l-.48-2.877H53.765V73.211h6.269v-9.8a7.149,7.149,0,0,0,6.124,3c5.015,0,9.1-4.437,9.1-10.561v-.716c0-6.124-4.085-10.567-9.1-10.567m2.652,11.1c0,3.224-1.681,5.552-4.478,5.552s-4.478-2.328-4.478-5.552v-.358c0-3.224,1.687-5.552,4.478-5.552s4.478,2.328,4.478,5.552Z" transform="translate(4.357 -37.399)" fill="#231f20"/>
        <path id="Path_7210" data-name="Path 7210" d="M86.441,44.56c-6.407,0-10.925,4.443-10.925,10.567v.716c0,6.124,4.518,10.561,10.925,10.561s10.925-4.437,10.925-10.561v-.716c0-6.124-4.512-10.567-10.925-10.567m4.478,11.1c0,3.224-1.681,5.552-4.478,5.552s-4.478-2.328-4.478-5.552v-.358c0-3.224,1.687-5.552,4.478-5.552s4.478,2.328,4.478,5.552Z" transform="translate(108.274 -37.399)" fill="#231f20"/>
        <path id="Path_7211" data-name="Path 7211" d="M82.57,45.729v-.1c0-.612-.462-1.04-1.288-1.04H79.849v3.293h.682V46.769h.757l.566,1.109h.757l-.7-1.3a.868.868,0,0,0,.659-.849m-2.039-.537h.751c.433,0,.612.144.612.468v.035c0,.289-.179.468-.612.468h-.751Z" transform="translate(128.975 -37.279)" fill="#231f20"/>
        <path id="Path_7212" data-name="Path 7212" d="M82.881,44.281a3.4,3.4,0,1,0,3.4,3.4,3.332,3.332,0,0,0-3.4-3.4m0,6.338a2.935,2.935,0,1,1,2.906-2.935,2.81,2.81,0,0,1-2.906,2.935" transform="translate(127.232 -38.732)" fill="#231f20"/>
        <rect id="Rectangle_973" data-name="Rectangle 973" width="6.267" height="28.65" transform="translate(159.082)" fill="#231f20"/>
        <path id="Path_7213" data-name="Path 7213" d="M81.72,64.919c-1.826,0-2.507-.9-2.507-2.831V53.457h7.378V48.621H79.213V43.785l-6.269.936V62.7c0,4.905,2.507,7.413,7.522,7.413a14.83,14.83,0,0,0,6.985-1.9L85.66,63.77a9.984,9.984,0,0,1-3.94,1.15" transform="translate(95.986 -41.101)" fill="#231f20"/>
        <path id="Path_7214" data-name="Path 7214" d="M76.951,44.56a18.985,18.985,0,0,0-9.163,2.652l1.964,4.87c3.079-1.722,5.627-2.473,7.488-2.473,2.115,0,3.045.792,3.045,1.826v.075c0,.716-.572,1.109-1.97,1.254l-2.438.248c-6.084.647-8.591,3.293-8.591,6.95v.248c0,3.472,2.866,6.194,6.91,6.194A7.621,7.621,0,0,0,80.579,63.3l.456,2.75h5.518V53.55c0-5.91-3.4-8.99-9.6-8.99m-.537,17.084c-2.039,0-3-.786-3-2v-.075c0-1.075.607-1.86,2.825-2.184l.971-.139a7.758,7.758,0,0,0,3.079-.942v1.583a3.516,3.516,0,0,1-3.871,3.761" transform="translate(68.95 -37.399)" fill="#231f20"/>
        <path id="Path_7215" data-name="Path 7215" d="M74.176,44.56c-6.407,0-10.92,4.443-10.92,10.567v.716c0,6.124,4.512,10.561,10.92,10.561S85.1,61.968,85.1,55.844v-.716C85.1,49,80.589,44.56,74.176,44.56m4.478,11.1c0,3.224-1.681,5.552-4.478,5.552S69.7,58.888,69.7,55.665v-.358c0-3.224,1.687-5.552,4.478-5.552s4.478,2.328,4.478,5.552Z" transform="translate(49.701 -37.399)" fill="#231f20"/>
        <path id="Path_7216" data-name="Path 7216" d="M69.586,49.159h1.605l2.217,2.924h.022V49.159H74.9v5.155H73.35l-2.268-3h-.022v3H69.586Z" transform="translate(79.945 -15.428)" fill="#231f20"/>
        <path id="Path_7217" data-name="Path 7217" d="M70.846,49.159h4.507l.059,1.252H72.385v.707h2.379v1.141H72.385v.8H75.5l-.059,1.252h-4.6Z" transform="translate(85.961 -15.428)" fill="#231f20"/>
        <path id="Path_7218" data-name="Path 7218" d="M73.686,50.484h-1.8l.059-1.326h5.045l.059,1.326h-1.8v3.83H73.686Z" transform="translate(90.912 -15.428)" fill="#231f20"/>
        <path id="Path_7219" data-name="Path 7219" d="M72.991,49.159h1.65l.84,3.579h.081l1.09-3.579h1.51l1.068,3.579h.081l.825-3.579h1.576l-1.355,5.155H78.33l-.943-3.108h-.044l-.957,3.108H74.353Z" transform="translate(96.211 -15.428)" fill="#231f20"/>
        <path id="Path_7220" data-name="Path 7220" d="M74.7,51.865A2.955,2.955,0,1,1,77.643,54.6,2.649,2.649,0,0,1,74.7,51.865m4.356,0a1.407,1.407,0,1,0-1.415,1.421,1.295,1.295,0,0,0,1.415-1.421" transform="translate(104.357 -15.556)" fill="#231f20"/>
        <path id="Path_7221" data-name="Path 7221" d="M76.006,49.159h3c1.369,0,2.04.647,2.04,1.849a1.607,1.607,0,0,1-1.005,1.647l1.225,1.658H79.519l-.953-1.358H77.549v1.358H76.006Zm2.8,2.588a.674.674,0,1,0,0-1.346H77.549v1.346Z" transform="translate(110.615 -15.427)" fill="#231f20"/>
        <path id="Path_7222" data-name="Path 7222" d="M77.227,49.159h1.547v1.9h.633l1.51-1.9h1.738l.007.007-1.974,2.467,2.084,2.673-.007.007h-1.8L79.4,52.333h-.626v1.981H77.227Z" transform="translate(116.447 -15.428)" fill="#231f20"/>
        <path id="Path_7223" data-name="Path 7223" d="M78.416,54.091v-1.41h.006a5.516,5.516,0,0,0,2.432.647c.549,0,.832-.133.832-.393s-.185-.324-1.288-.5c-1.208-.2-2.011-.555-2.011-1.595,0-.965.844-1.71,2.5-1.71a5.137,5.137,0,0,1,1.993.416v1.4l-.006.006a4.519,4.519,0,0,0-2.1-.572c-.589,0-.826.139-.826.376,0,.3.364.329,1.265.485,1.208.208,2.011.543,2.011,1.635,0,.849-.63,1.693-2.45,1.693a6.138,6.138,0,0,1-2.363-.48" transform="translate(121.991 -15.546)" fill="#231f20"/>
      </g>
    </g>
  </g>
</svg>
