<svg xmlns="http://www.w3.org/2000/svg" xmlns:xlink="http://www.w3.org/1999/xlink" width="215" height="65" viewBox="0 0 215 65">
  <defs>
    <clipPath id="clip-tenable-logo">
      <rect width="215" height="65"/>
    </clipPath>
  </defs>
  <g id="tenable-logo" clip-path="url(#clip-tenable-logo)">
    <g id="Tenable" transform="translate(19 13)">
      <g id="Group_160514" data-name="Group 160514" transform="translate(0 0)">
        <g id="Group_160509" data-name="Group 160509" transform="translate(0 0)">
          <g id="Group_160508" data-name="Group 160508">
            <path id="Path_7278" data-name="Path 7278" d="M-774.27-1715.794c.109.4.506,1.883.882,3.288h0l2.975,11.1c.376,1.4.774,2.885.884,3.289h0a1.894,1.894,0,0,1-.455,1.7h0l-2.408,2.408h0l-8.128,8.129c-1.028,1.027-2.112,2.111-2.409,2.409h0a1.892,1.892,0,0,1-1.7.453h0c-.405-.108-1.885-.506-3.288-.879h0l-11.105-2.977c-1.4-.376-2.885-.773-3.287-.883h0a1.756,1.756,0,0,1-.777-.469h0a1.781,1.781,0,0,1-.47-.778h0c-.108-.4-.506-1.883-.881-3.287h0l-2.978-11.106c-.375-1.4-.771-2.883-.88-3.288h0l.425-.115.427-.114c.108.406.5,1.886.88,3.289h0l2.976,11.108c.376,1.4.774,2.883.88,3.289h0a.955.955,0,0,0,.243.381h0a.929.929,0,0,0,.379.241h0l3.29.881h0l11.106,2.975c1.4.377,2.884.772,3.29.881h0a1.049,1.049,0,0,0,.849-.227h0l2.409-2.408h0l8.128-8.13,2.408-2.407h0a1.055,1.055,0,0,0,.228-.849h0c-.11-.405-.5-1.886-.881-3.291h0l-2.978-11.1c-.375-1.4-.773-2.882-.883-3.287h0a.908.908,0,0,0-.24-.381h0a.888.888,0,0,0-.382-.241h0l-3.288-.884h0l-11.1-2.978-3.288-.879h0a1.056,1.056,0,0,0-.85.226h0l-2.407,2.408h0l-8.129,8.129-2.409,2.408h0a1.051,1.051,0,0,0-.226.849h0l-.427.114-.425.115a1.877,1.877,0,0,1,.455-1.7h0c.3-.3,1.381-1.38,2.407-2.409h0l8.13-8.127,2.408-2.407h0a1.877,1.877,0,0,1,1.7-.456h0c.4.109,1.882.506,3.288.882h0l11.1,2.978c1.4.374,2.884.772,3.286.88h0a1.787,1.787,0,0,1,.778.471h0a1.755,1.755,0,0,1,.469.776Z" transform="translate(808.345 1721.83)" fill="#00a5b4"/>
            <path id="Path_7279" data-name="Path 7279" d="M-770.7-1708.39c.3.171,1.392.8,2.43,1.4h0l8.2,4.736c1.038.6,2.133,1.23,2.433,1.4h0a1.561,1.561,0,0,1,.727,1.258h0v2.806h0v12.284h0a1.56,1.56,0,0,1-.727,1.256h0c-.3.174-1.394.8-2.43,1.4h0l-8.208,4.738c-1.039.6-2.131,1.232-2.43,1.4h0a1.459,1.459,0,0,1-.726.179h0a1.473,1.473,0,0,1-.727-.179h0c-.3-.171-1.393-.8-2.429-1.4h0l-8.209-4.738-2.43-1.4h0l.181-.314.183-.316,2.43,1.405h0l8.209,4.739,2.431,1.4h0a.781.781,0,0,0,.363.081h0a.765.765,0,0,0,.362-.081h0l2.431-1.4h0l8.208-4.739,2.431-1.4h0a.867.867,0,0,0,.363-.627h0v-2.808h0v-12.282h0a.872.872,0,0,0-.362-.628h0c-.3-.171-1.394-.805-2.432-1.4h0l-8.208-4.736c-1.036-.6-2.13-1.23-2.431-1.4h0a.749.749,0,0,0-.362-.081h0a.728.728,0,0,0-.363.081h0l-2.432,1.4h0l-8.208,4.736c-1.037.6-2.13,1.232-2.43,1.4h0a.875.875,0,0,0-.363.628h0v2.806h0v12.284h0a.868.868,0,0,0,.363.626h0l-.183.316-.181.314a1.547,1.547,0,0,1-.725-1.256h0c0-.346,0-1.609,0-2.808h0l0-9.477v-2.806h0a1.548,1.548,0,0,1,.725-1.258h0c.3-.172,1.393-.8,2.431-1.4h0l8.208-4.736c1.036-.6,2.131-1.231,2.429-1.4h0a1.47,1.47,0,0,1,.727-.179h0a1.448,1.448,0,0,1,.727.179Z" transform="translate(790.861 1711.476)" fill="#00a5b4"/>
            <path id="Path_7280" data-name="Path 7280" d="M-780.319-1695.2l2.413-.647h0l8.146-2.183c1.031-.275,2.118-.568,2.414-.648h0a1.392,1.392,0,0,1,1.25.334h0l1.766,1.767h0l5.965,5.964,1.767,1.767h0a1.387,1.387,0,0,1,.333,1.249h0c-.079.3-.371,1.383-.645,2.413h0l-2.184,8.149c-.276,1.031-.567,2.116-.647,2.412h0a1.291,1.291,0,0,1-.344.57h0a1.312,1.312,0,0,1-.57.345h0c-.3.08-1.381.372-2.412.646h0l-8.149,2.185-2.413.646h0l-.084-.312-.083-.313,2.413-.646h0l8.15-2.183c1.029-.277,2.116-.568,2.414-.647h0a.708.708,0,0,0,.28-.177h0a.686.686,0,0,0,.176-.279h0c.08-.3.371-1.384.647-2.412h0l2.183-8.151c.277-1.03.567-2.116.646-2.413h0a.767.767,0,0,0-.166-.622h0c-.217-.219-1.012-1.014-1.767-1.768h0l-5.964-5.964-1.767-1.767h0a.776.776,0,0,0-.623-.167h0c-.3.081-1.384.369-2.415.647h0l-8.147,2.185c-1.029.275-2.115.567-2.412.648h0a.659.659,0,0,0-.279.176h0a.649.649,0,0,0-.177.281h0c-.08.3-.372,1.382-.649,2.412h0l-2.185,8.147c-.276,1.031-.565,2.117-.645,2.414h0a.772.772,0,0,0,.167.624h0l1.767,1.767h0l5.964,5.964,1.767,1.768h0a.775.775,0,0,0,.623.166h0l.083.313.084.312a1.375,1.375,0,0,1-1.248-.334h0c-.218-.218-1.013-1.013-1.768-1.766h0l-5.963-5.966-1.766-1.767h0a1.38,1.38,0,0,1-.335-1.248h0c.081-.3.372-1.382.648-2.414h0l2.184-8.148c.276-1.03.568-2.116.646-2.411h0a1.308,1.308,0,0,1,.346-.571h0a1.284,1.284,0,0,1,.569-.345Z" transform="translate(789.921 1703.781)" fill="#00a5b4"/>
            <path id="Path_7281" data-name="Path 7281" d="M-792.017-1681.547a16.939,16.939,0,0,1,0-23.957,16.939,16.939,0,0,1,23.956,0,16.939,16.939,0,0,1,0,23.957A16.94,16.94,0,0,1-792.017-1681.547Zm23.4-.525a16.155,16.155,0,0,0,.035-22.845,16.154,16.154,0,0,0-22.845.036,16.154,16.154,0,0,0-.035,22.845A16.154,16.154,0,0,0-768.62-1682.073Z" transform="translate(799.471 1712.957)" fill="#00a5b4"/>
            <path id="Path_7282" data-name="Path 7282" d="M-757.477-1689.609l1.8,1.039h0l6.077,3.508,1.8,1.039h0a1.154,1.154,0,0,1,.539.932h0c0,.256,0,1.191,0,2.078h0v9.1h0a1.151,1.151,0,0,1-.539.93h0l-1.8,1.041h0l-6.079,3.509c-.769.444-1.578.912-1.8,1.038h0a1.081,1.081,0,0,1-.538.133h0a1.092,1.092,0,0,1-.539-.133h0c-.221-.126-1.031-.594-1.8-1.038h0l-6.08-3.509-1.8-1.041h0l.133-.233.136-.232,1.8,1.04h0l6.08,3.51c.767.442,1.578.91,1.8,1.039h0a.568.568,0,0,0,.269.06h0a.56.56,0,0,0,.268-.06h0c.223-.129,1.032-.6,1.8-1.039h0l6.078-3.51,1.8-1.04h0a.639.639,0,0,0,.269-.464h0v-2.079h0v-9.1h0a.642.642,0,0,0-.268-.465h0c-.223-.128-1.033-.6-1.8-1.041h0l-6.078-3.507c-.767-.444-1.578-.91-1.8-1.038h0a.565.565,0,0,0-.268-.061h0a.538.538,0,0,0-.269.061h0c-.222.128-1.033.594-1.8,1.038h0l-6.079,3.507-1.8,1.041h0a.643.643,0,0,0-.269.465h0v2.078h0v9.1h0a.642.642,0,0,0,.269.464h0l-.136.232-.133.233a1.143,1.143,0,0,1-.537-.93h0c0-.257,0-1.193,0-2.079h0v-9.1h0a1.147,1.147,0,0,1,.537-.932h0l1.8-1.039h0l6.078-3.508,1.8-1.039h0a1.092,1.092,0,0,1,.539-.133h0a1.076,1.076,0,0,1,.538.133Z" transform="translate(777.447 1696.776)" fill="#00a5b4"/>
            <path id="Path_7283" data-name="Path 7283" d="M-773.262-1669.729a12.545,12.545,0,0,1,0-17.742,12.546,12.546,0,0,1,17.742,0,12.544,12.544,0,0,1,0,17.742A12.545,12.545,0,0,1-773.262-1669.729Zm17.328-.388a11.963,11.963,0,0,0,.026-16.919,11.963,11.963,0,0,0-16.918.026,11.965,11.965,0,0,0-.026,16.919A11.965,11.965,0,0,0-755.934-1670.117Z" transform="translate(783.823 1697.872)" fill="#00a5b4"/>
          </g>
        </g>
        <g id="Group_160513" data-name="Group 160513" transform="translate(42.283 3.762)">
          <g id="Group_160511" data-name="Group 160511">
            <g id="Group_160510" data-name="Group 160510">
              <path id="Path_7284" data-name="Path 7284" d="M-612.1-1673.761v-10.611h-3.382v-4.693h3.382v-5.581h5.369v5.581h4.142v4.693h-4.142v9.174c0,1.311.676,2.283,1.86,2.283a2.7,2.7,0,0,0,1.86-.634l1.142,4.1a6.627,6.627,0,0,1-4.481,1.312C-610.111-1668.137-612.1-1670.083-612.1-1673.761Z" transform="translate(615.48 1696.844)" fill="#445464"/>
              <path id="Path_7285" data-name="Path 7285" d="M-551.071-1660.806a10.417,10.417,0,0,1,10.568-10.7c6.131,0,10.231,4.565,10.231,11.2v1.268h-15.177c.38,2.495,2.41,4.567,5.877,4.567a8.536,8.536,0,0,0,5.41-1.988l2.411,3.552a12.734,12.734,0,0,1-8.414,2.832C-546.379-1650.067-551.071-1654.252-551.071-1660.806Zm10.568-6.3a4.709,4.709,0,0,0-4.988,4.354h10.063A4.68,4.68,0,0,0-540.5-1667.1Z" transform="translate(565.192 1678.774)" fill="#445464"/>
              <path id="Path_7286" data-name="Path 7286" d="M-433.243-1650.575v-12.345c0-2.832-1.48-3.8-3.763-3.8a5.97,5.97,0,0,0-4.651,2.368v13.781h-5.369v-20.42h5.369v2.621a9.55,9.55,0,0,1,7.145-3.128c4.524,0,6.681,2.537,6.681,6.51v14.416Z" transform="translate(483.958 1678.774)" fill="#445464"/>
              <path id="Path_7287" data-name="Path 7287" d="M-337.884-1650.575v-2.156a8.326,8.326,0,0,1-6.467,2.664c-3.255,0-7.061-2.2-7.061-6.765,0-4.819,3.806-6.595,7.061-6.595a8.333,8.333,0,0,1,6.467,2.495v-2.58c0-2.071-1.775-3.424-4.48-3.424a8.588,8.588,0,0,0-5.877,2.41l-2.114-3.764a13.187,13.187,0,0,1,8.922-3.212c4.693,0,8.962,1.86,8.962,7.736v13.191Zm0-4.9v-2.537a5.394,5.394,0,0,0-4.31-1.817c-2.115,0-3.849,1.141-3.849,3.086s1.734,3.044,3.849,3.044A5.364,5.364,0,0,0-337.884-1655.479Z" transform="translate(409.306 1678.774)" fill="#445464"/>
              <path id="Path_7288" data-name="Path 7288" d="M-254.526-1676.473v-28.2h5.368v10.4a7.746,7.746,0,0,1,6.3-3.128c5.2,0,9.047,4.059,9.047,10.7,0,6.848-3.888,10.739-9.047,10.739a7.928,7.928,0,0,1-6.3-3.129v2.621Zm10.019-4.27c3.085,0,5.158-2.41,5.158-5.961,0-3.508-2.072-5.918-5.158-5.918a6.01,6.01,0,0,0-4.652,2.368v7.229A6.062,6.062,0,0,0-244.507-1680.743Z" transform="translate(333.661 1704.671)" fill="#445464"/>
              <path id="Path_7289" data-name="Path 7289" d="M-151.777-1676.473v-28.2h5.37v28.2Z" transform="translate(253.439 1704.671)" fill="#445464"/>
              <path id="Path_7290" data-name="Path 7290" d="M-118.1-1660.806a10.417,10.417,0,0,1,10.568-10.7c6.131,0,10.231,4.565,10.231,11.2v1.268h-15.177c.381,2.495,2.409,4.567,5.875,4.567a8.541,8.541,0,0,0,5.413-1.988l2.409,3.552a12.732,12.732,0,0,1-8.413,2.832C-113.4-1650.067-118.1-1654.252-118.1-1660.806Zm10.568-6.3a4.707,4.707,0,0,0-4.987,4.354h10.06A4.678,4.678,0,0,0-107.529-1667.1Z" transform="translate(227.143 1678.774)" fill="#445464"/>
            </g>
          </g>
          <g id="Group_160512" data-name="Group 160512" transform="translate(129.462 5.005)">
            <path id="Path_7291" data-name="Path 7291" d="M-23.985-1681.558v2.126h-.307v-2.126h-.68v-.285h1.666v.285Zm3.113,2.126v-2l-.822,2h-.087l-.822-2v2h-.307v-2.412h.471l.7,1.754.7-1.754h.472v2.412Z" transform="translate(24.972 1681.843)" fill="#445464"/>
          </g>
        </g>
      </g>
    </g>
  </g>
</svg>
